<svg xmlns="http://www.w3.org/2000/svg" viewBox="0 0 1440 320" preserveAspectRatio="none">
  <defs>
    <linearGradient id="waveGrad" x1="0%" y1="0%" x2="100%" y2="0%">
      <stop offset="0%" style="stop-color:#2563EB;stop-opacity:0.08"/>
      <stop offset="100%" style="stop-color:#06B6D4;stop-opacity:0.06"/>
    </linearGradient>
  </defs>
  <path fill="url(#waveGrad)" d="M0,160L48,149.3C96,139,192,117,288,128C384,139,480,181,576,186.7C672,192,768,160,864,144C960,128,1056,128,1152,138.7C1248,149,1344,171,1392,181.3L1440,192L1440,320L1392,320C1344,320,1248,320,1152,320C1056,320,960,320,864,320C768,320,672,320,576,320C480,320,384,320,288,320C192,320,96,320,48,320L0,320Z"/>
</svg>
